<svg width="680" height="200" viewBox="0 0 680 200" fill="none" xmlns="http://www.w3.org/2000/svg">
<path d="M41.0652 99.0616L103.401 77.2126C106.035 76.2928 108.506 74.804 110.611 72.6994C118.094 65.2163 118.094 53.0876 110.611 45.6123C106.869 41.8708 101.966 40 97.0634 40H30.4876C22.685 40 14.8823 42.9776 8.92705 48.9329C-2.97568 60.8356 -2.97568 80.1435 8.92705 92.0462C17.6183 100.737 30.2382 103.053 41.0574 99.0616H41.0652Z" fill="#3838F9"/>
<path d="M75.1677 100.714L12.8323 122.563C10.2054 123.483 7.72667 124.972 5.62206 127.076C-1.861 134.559 -1.861 146.688 5.62206 154.163C9.36359 157.905 14.2665 159.776 19.1617 159.776H85.7375C93.5402 159.776 101.343 156.798 107.298 150.851C119.201 138.948 119.201 119.64 107.298 107.737C98.6068 99.0461 85.987 96.731 75.1677 100.722V100.714Z" fill="#3838F9"/>
<path d="M173.155 118.104C174.208 132.26 185.198 141.598 201.31 141.598C215.466 141.598 225.552 135.121 225.552 123.678C225.552 110.575 212.605 107.87 196.641 105.157C179.625 102.297 162.157 96.7232 162.157 76.2461C162.157 58.3258 176.764 46.2827 198.146 46.2827C221.639 46.2827 236.091 59.3859 237.299 78.3585H223.744C222.24 66.1596 212.449 58.1777 198.146 58.1777C183.842 58.1777 175.26 64.2031 175.26 75.4978C175.26 88.1489 188.059 90.7056 203.867 93.4182C221.031 96.2789 238.648 102 238.648 122.477C238.648 140.702 223.292 153.493 201.155 153.493C175.408 153.493 160.349 138.886 159.592 118.104H173.155Z" fill="white"/>
<path d="M249.95 54.8572C249.95 50.1881 253.411 46.8752 257.932 46.8752C262.453 46.8752 265.914 50.1881 265.914 54.8572C265.914 59.5263 262.453 62.8391 257.932 62.8391C253.411 62.8391 249.95 59.5263 249.95 54.8572ZM251.603 75.7863H263.95V152.581H251.603V75.7863Z" fill="white"/>
<path d="M393.75 108.314V152.581H381.403V109.063C381.403 94.0029 374.777 86.1768 363.186 86.1768C350.387 86.1768 342.553 95.8113 342.553 111.471V152.581H330.206V109.063C330.206 94.0029 323.432 86.1768 311.686 86.1768C299.035 86.1768 291.357 96.7155 291.357 112.079V152.581H279.01V75.7863H289.704L291.357 86.3249C295.425 80.7516 301.895 74.8821 313.79 74.8821C324.485 74.8821 333.667 79.6993 338.032 89.4896C342.701 81.2115 350.979 74.8821 364.683 74.8821C380.647 74.8821 393.742 84.0644 393.742 108.314H393.75Z" fill="white"/>
<path d="M404.14 114.192C404.14 90.8538 418.896 74.8899 440.581 74.8899C462.266 74.8899 476.422 88.5932 477.022 111.331C477.022 112.983 476.874 114.792 476.718 116.6H417.087V117.652C417.54 132.26 426.722 142.502 441.329 142.502C452.172 142.502 460.606 136.781 463.163 126.843H475.658C472.649 142.198 459.998 153.493 442.226 153.493C419.184 153.493 404.132 137.685 404.132 114.192H404.14ZM463.771 106.358C462.563 93.1065 453.528 85.7247 440.729 85.7247C429.435 85.7247 419.044 93.8548 417.844 106.358H463.771Z" fill="white"/>
<path d="M494.186 87.081H480.335V75.7862H494.186V54.2568H506.533V75.7862H526.41V87.081H506.533V132.408C506.533 138.886 508.794 141.294 515.42 141.294H527.619V152.589H514.219C499.464 152.589 494.194 146.111 494.194 132.564V87.0887H494.186V87.081Z" fill="white"/>
<path d="M575.494 75.7864V87.8294H569.321C553.209 87.8294 548.844 101.229 548.844 113.428V152.581H536.497V75.7864H547.191L548.844 87.3773C552.461 81.5078 558.33 75.7864 572.033 75.7864H575.494Z" fill="white"/>
<path d="M582.728 54.8572C582.728 50.1881 586.189 46.8752 590.71 46.8752C595.231 46.8752 598.692 50.1881 598.692 54.8572C598.692 59.5263 595.231 62.8391 590.71 62.8391C586.189 62.8391 582.728 59.5263 582.728 54.8572ZM584.381 75.7863H596.728V152.581H584.381V75.7863Z" fill="white"/>
<path d="M611.787 47.1792H624.134V116.6L662.68 75.7941H677.888L647.924 107.566L680 152.589H665.096L639.646 116.452L624.134 132.416V152.597H611.787V47.1792Z" fill="white"/>
</svg>
